<?xml version="1.0"?>
<svg width="530" height="600" xmlns="http://www.w3.org/2000/svg" xmlns:svg="http://www.w3.org/2000/svg">
 <defs>
  <linearGradient id="linear-gradient" x1="0.257504" x2="0.725959" y1="-0.089078" y2="0.842092">
   <stop offset="0.377" stop-color="#456aa1"/>
   <stop offset="1" stop-color="#334f7a"/>
  </linearGradient>
  <linearGradient id="linear-gradient-2" x1="0.000019" x2="0.999997" y1="0.5" y2="0.5">
   <stop offset="0.309" stop-color="#456aa1"/>
   <stop offset="1" stop-color="#334f7a"/>
  </linearGradient>
  <linearGradient id="linear-gradient-3" x1="0" x2="0.999979" y1="0.499998" y2="0.499998">
   <stop offset="0.435" stop-color="#456aa1"/>
   <stop offset="1" stop-color="#334f7a"/>
  </linearGradient>
  <style>.cls-1{fill:#f1dcd6}.cls-2{fill:#456aa1}.cls-3{fill:#fff}.cls-4{fill:#231f20}.cls-5{fill:none;stroke:#231f20;stroke-width:2px;stroke-miterlimit:10}.cls-7{fill:#f4e3db}</style>
 </defs>
 <g class="layer">
  <title>Layer 1</title>
  <path d="m428.916096,411.009993a-0.141771,-0.581918 0 0 0 -0.088,-0.106931c-0.015782,-0.811895 -0.355411,-4.351235 -4.726043,-8.953215c-2.635255,-2.774919 -4.580899,-4.16414 -5.907273,-4.473171c0,0 -6.046792,-7.577924 -6.805419,-5.725317c-0.757738,1.850783 4.595433,7.898349 4.595433,7.898349c-0.247785,2.413964 0.758397,4.741688 3.047468,7.555991c2.244906,2.760506 5.11227,5.91332 6.640828,5.912412c1.556344,1.790462 5.916835,1.122492 3.243007,-2.108118l-0.000001,0zm-1.826858,31.063972c-2.19025,-1.679305 -3.768479,-2.963934 -6.273596,-4.950105c-13.886165,-11.014345 -24.03354,-23.855362 -25.667662,-26.173088c-1.442503,-2.044623 -5.905906,-9.041037 -8.524881,-12.766022a-1.141809,-4.686699 0 0 0 -0.959347,-4.538068c-2.068602,-3.150174 -5.126136,-7.076114 -7.926618,-7.832255a-4.463939,-18.322806 0 0 0 -2.082364,-0.233288l-0.117217,-0.15819c-0.412854,-0.434112 -0.503213,-0.526393 -0.503213,-0.526393c-9.063562,-9.557376 -15.170391,-17.038278 -19.235065,-22.572176a-4.12097,-16.915045 0 0 1 -1.773916,-2.513418a-4.296892,-17.637139 0 0 1 -6.503689,-13.790655s-0.002129,-0.008285 -0.005664,-0.027011l0.002216,-0.003143l-0.003095,-0.01822s-0.004621,-0.005316 0.001108,-0.001572c1.222053,0.711345 2.450244,0.962931 3.570936,0.381791c0.152973,-0.07792 2.903167,-2.008775 -3.643304,-8.530374l-0.001827,-0.136455c0.262784,-5.378955 1.825518,-10.353747 7.146996,-10.020922c2.894963,0.181823 6.894155,1.926031 12.406543,6.032302a-7.963564,-32.687464 0 0 1 7.531671,6.260373a-18.552031,-76.149171 0 0 1 35.213064,36.93549a-19.127316,-78.510504 0 0 1 8.071202,9.991544c10.059852,12.860021 15.75588,21.72394 15.75588,21.72394s0.124022,0.171712 0.35502,0.492965l-0.001108,0.001572c-0.448256,0.149677 -0.706817,0.748146 -0.397816,2.267836c0.837345,4.097268 6.548235,11.965652 9.659804,16.047261a-1.371822,-5.630817 0 0 0 3.066025,3.334535l0.004401,0.005063a-7.789889,-31.974592 0 0 1 2.012427,5.860429a-8.405167,-34.500079 0 0 1 0.587462,5.957457a-11.209136,-46.009327 0 0 1 -0.673713,2.67102c-2.460995,5.703942 -5.598255,6.363744 -10.795465,3.699443l-0.005509,-0.003491c3.611068,5.840948 7.876906,13.430146 4.867173,12.252384c-4.073454,-1.593098 -11.9147,-12.849076 -15.15664,-19.120306l-0.00022,-0.000253l0.000001,0zm-15.399129,-19.43713c3.849001,6.12919 10.208922,11.015077 13.186104,12.981152c2.972342,1.960506 7.60693,2.722686 1.677076,-7.408061c-3.551836,-6.06457 -7.687436,-10.466327 -10.547053,-13.131595a-2.109324,-8.657989 0 0 0 -6.274506,-3.871487a-6.209792,-25.488881 0 0 0 -1.764788,0.289611c-2.344633,0.903453 -0.125834,5.011189 3.723167,11.14038z" fill="#ffff00" id="svg_47"/>
  <path d="m-5.408322,297.406724a0.183908,0.754874 0 0 0 0.059332,0.125132c-0.182272,0.791327 -0.714178,4.306912 2.405132,9.834165c1.880733,3.332802 3.429808,5.153746 4.641101,5.776268c0,0 4.020862,8.821634 5.207526,7.20934c1.185359,-1.610741 -2.535158,-8.779227 -2.535158,-8.779227c0.827791,-2.281091 0.418326,-4.783697 -1.117046,-8.070453c-1.505627,-3.223829 -3.519528,-6.979651 -5.002353,-7.350756c-1.073833,-2.115381 -5.465787,-2.52865 -3.658536,1.255532l0.000002,-0.000001zm9.331574,-29.685497c1.715733,2.161831 2.93389,3.791913 4.880345,6.328011c10.788277,14.06251 17.505633,28.986915 18.526592,31.632637c0.901563,2.334198 3.528152,10.206474 5.16189,14.456819a1.481173,6.079665 0 0 0 -0.173865,4.635101c1.239795,3.558878 3.250003,8.110862 5.78228,9.525788a5.790697,23.768655 0 0 0 1.962988,0.733033l0.075196,0.18196c0.294798,0.521532 0.359983,0.633028 0.359983,0.633028c6.465223,11.475729 10.567928,20.217868 13.16369,26.574563a5.345792,21.942482 0 0 1 1.108927,2.869551a5.574001,22.879195 0 0 1 2.95211,14.958776s0.000049,0.008554 -0.001079,0.027577l-0.002915,0.00251l-0.001432,0.018425s0.003188,0.006281 -0.001457,0.001255c-1.012203,-0.987355 -2.142245,-1.530266 -3.370669,-1.239325c-0.167337,0.03835 -3.304737,1.241877 1.457846,9.160544l-0.031435,0.132797c-1.563891,5.153293 -4.290294,9.598223 -9.370793,7.980384c-2.763682,-0.880866 -6.218179,-3.545869 -10.565554,-8.870169a10.330471,42.402732 0 0 1 -5.781735,-7.905049a24.066008,98.781993 0 0 1 -25.165917,-44.394423a24.812278,101.845154 0 0 1 -5.397039,-11.655346c-6.627838,-14.921539 -9.995526,-24.905144 -9.995526,-24.905144s-0.078506,-0.196732 -0.22438,-0.564541l0.001457,-0.001255c0.471204,-0.036091 0.867635,-0.553645 0.93775,-2.102846c0.184928,-4.177863 -3.439445,-13.19948 -5.46418,-17.915604a1.77955,7.304391 0 0 0 -2.162367,-3.980426l-0.003036,-0.005982a10.105176,41.477981 0 0 1 -0.525749,-6.173982a10.903325,44.754086 0 0 1 0.879989,-5.921317a14.540681,59.684078 0 0 1 1.303471,-2.426766c3.775104,-4.93356 6.978613,-4.810051 11.3712,-0.961072l0.004494,0.004727c-2.08107,-6.544127 -4.371776,-14.943287 -1.739143,-13.068494c3.563299,2.536507 8.429587,15.362312 10.047914,22.233956l0.000152,0.000299l-0.000003,0zm10.206011,22.600267c-2.241704,-6.881606 -7.221407,-13.168337 -9.630626,-15.799824c-2.405879,-2.624907 -6.715653,-4.492032 -3.429462,6.77722c1.969199,6.746611 4.909268,12.022463 7.034304,15.303512a2.736251,11.23129 0 0 0 5.143717,5.282041a8.055447,33.064608 0 0 0 1.782211,0.148569c2.494007,-0.305708 1.34156,-4.829912 -0.900144,-11.711518z" fill="#ffff00" id="svg_45" transform="rotate(-93.4776 449.529 297.71) matrix(-0.516922 -0.856033 0.856033 -0.516922 185.07 480.641)"/>
  <path d="m441.719758,234.720491a-0.151375,-0.621338 0 0 0 -0.119898,-0.069302c-0.299363,-0.754854 -1.858038,-3.950603 -7.56445,-6.728646c-3.440718,-1.675172 -5.749871,-2.294279 -7.100415,-2.118789c0,0 -8.319347,-4.977664 -8.380476,-2.976682c-0.060937,1.998963 7.07238,5.786485 7.07238,5.786485c0.614067,2.347668 2.372318,4.175032 5.50262,6.008432c3.070083,1.798497 6.860644,3.746232 8.291907,3.209598c2.08519,1.131347 5.934905,-1.022664 2.298333,-3.111098l-0.000001,0.000002zm9.177449,29.733528c-2.639917,-0.805047 -4.5683,-1.454983 -7.61067,-2.437064c-16.865886,-5.448247 -30.87046,-13.91778 -33.213307,-15.515678c-2.067659,-1.409287 -8.700242,-6.397336 -12.458728,-8.968006a-1.219155,-5.004179 0 0 0 -2.489147,-3.913894c-3.041549,-2.225241 -7.281208,-4.830395 -10.169058,-4.556952a-4.766329,-19.564005 0 0 0 -2.032024,0.511413l-0.165228,-0.107068c-0.538825,-0.261859 -0.655796,-0.316613 -0.655796,-0.316613c-11.838553,-5.77411 -20.18012,-10.639863 -25.926637,-14.397943a-4.400127,-18.06088 0 0 1 -2.542366,-1.732175a-4.587966,-18.831889 0 0 1 -10.924915,-10.636092s-0.004898,-0.007013 -0.014773,-0.023311l0.000974,-0.003721l-0.009285,-0.015979s-0.006191,-0.003359 0.000487,-0.00186c1.39386,0.237867 2.632316,0.042991 3.478209,-0.8941c0.115956,-0.126596 2.014875,-2.898937 -6.402191,-6.712148l-0.049541,-0.127157c-1.639295,-5.129808 -1.919448,-10.336748 3.181081,-11.890299c2.77503,-0.844442 7.131875,-0.612671 13.733853,1.300909a-8.503021,-34.901733 0 0 1 9.248198,3.22323a-19.808756,-81.307562 0 0 1 45.925511,22.249471a-20.423012,-83.828853 0 0 1 11.061334,6.52857c13.929264,8.518011 22.370861,14.82303 22.370861,14.82303s0.176342,0.117347 0.505288,0.33725l-0.000487,0.00186c-0.367353,0.297301 -0.399738,0.948432 0.422335,2.263399c2.220378,3.543823 10.326944,8.911258 14.671773,11.643266a-1.464749,-6.012252 0 0 0 4.040315,2.048293l0.005896,0.0032a-8.317581,-34.140569 0 0 1 3.938925,4.78324a-8.974538,-36.837135 0 0 1 2.638373,5.373584a-11.96845,-49.126027 0 0 1 0.305263,2.73771c-0.305543,6.204685 -3.012495,7.922285 -8.813858,7.248719l-0.006383,-0.001339c5.429315,4.204646 12.084647,9.817121 8.853037,9.769039c-4.373427,-0.064218 -15.662598,-7.857606 -20.897025,-12.594622l-0.000295,-0.00016l0.000002,-0.000002l-0.000001,0zm-21.235181,-12.80635c5.753186,4.391202 13.422194,6.737863 16.899636,7.535657c3.470956,0.794274 8.078668,-0.116397 -1.025963,-7.525915c-5.452224,-4.434842 -10.868333,-7.107748 -14.480747,-8.601583a-2.252211,-9.244487 0 0 0 -7.233449,-1.426557a-6.630447,-27.215513 0 0 0 -1.551311,0.889823c-1.879209,1.667965 1.638649,4.737372 7.391834,9.128574l0,0.000001z" fill="#ffff00" id="svg_44"/>
  <path d="m487.72045,343.720638a-0.151375,-0.621337 0 0 0 -0.119898,-0.069301c-0.299362,-0.754854 -1.858036,-3.950603 -7.564446,-6.728647c-3.440717,-1.675173 -5.749868,-2.29428 -7.100412,-2.118792c0,0 -8.319343,-4.977666 -8.380473,-2.976684c-0.060938,1.998962 7.072376,5.786486 7.072376,5.786486c0.614066,2.347667 2.372316,4.175031 5.502617,6.008433c3.070081,1.798498 6.86064,3.746233 8.291904,3.209601c2.085189,1.131347 5.934904,-1.022663 2.298333,-3.111096l-0.000001,0zm9.177436,29.733524c-2.639916,-0.805049 -4.568299,-1.454984 -7.610667,-2.437066c-16.865881,-5.448251 -30.870447,-13.917787 -33.213294,-15.515686c-2.067658,-1.409287 -8.700238,-6.397337 -12.458721,-8.968008a-1.219155,-5.004179 0 0 0 -2.489145,-3.913894c-3.041548,-2.225242 -7.281204,-4.830396 -10.169054,-4.556954a-4.766329,-19.564004 0 0 0 -2.032023,0.511412l-0.165228,-0.107068c-0.538824,-0.261859 -0.655796,-0.316613 -0.655796,-0.316613c-11.838548,-5.774113 -20.180112,-10.639868 -25.926626,-14.397948a-4.400127,-18.06088 0 0 1 -2.542364,-1.732175a-4.587966,-18.83189 0 0 1 -10.924909,-10.636093s-0.004898,-0.007013 -0.014772,-0.023312l0.000974,-0.003721l-0.009285,-0.015979s-0.006191,-0.003359 0.000487,-0.00186c1.39386,0.237867 2.632316,0.042992 3.478209,-0.894098c0.115956,-0.126596 2.014876,-2.898936 -6.402187,-6.712149l-0.049541,-0.127158c-1.639293,-5.129808 -1.919444,-10.336747 3.181084,-11.890295c2.775029,-0.844441 7.131873,-0.612668 13.733849,1.300914a-8.503021,-34.901733 0 0 1 9.248195,3.223232a-19.808756,-81.307562 0 0 1 45.925492,22.249481a-20.423012,-83.828853 0 0 1 11.061329,6.528572c13.929257,8.518013 22.370851,14.823034 22.370851,14.823034s0.176341,0.117347 0.505288,0.33725l-0.000487,0.00186c-0.367353,0.297301 -0.399738,0.948432 0.422334,2.263399c2.220376,3.543823 10.326938,8.91126 14.671765,11.643268a-1.46475,-6.012252 0 0 0 4.040313,2.048294l0.005896,0.003199a-8.317581,-34.14057 0 0 1 3.938922,4.78324a-8.974538,-36.837135 0 0 1 2.63837,5.373584a-11.96845,-49.126027 0 0 1 0.305262,2.737709c-0.305545,6.204683 -3.012497,7.922282 -8.813858,7.248714l-0.006383,-0.001339c5.429312,4.204647 12.084641,9.817123 8.853031,9.769039c-4.373427,-0.06422 -15.662592,-7.85761 -20.897015,-12.594626l-0.000295,-0.00016l-0.000001,0.000001zm-21.235172,-12.806354c5.753183,4.391203 13.422189,6.737866 16.89963,7.53566c3.470955,0.794275 8.078667,-0.116394 -1.02596,-7.525913c-5.452221,-4.434843 -10.868328,-7.10775 -14.48074,-8.601586a-2.252211,-9.244486 0 0 0 -7.233447,-1.426559a-6.630447,-27.215513 0 0 0 -1.551312,0.889822c-1.879209,1.667965 1.638647,4.737372 7.39183,9.128575l-0.000001,0.000001z" fill="#ffff00" id="svg_46"/>
  <path d="m138.874355,296.060086a0.183908,0.754874 0 0 0 0.059332,0.125132c-0.182272,0.791327 -0.714178,4.306912 2.405132,9.834165c1.880733,3.332802 3.429808,5.153746 4.641101,5.776268c0,0 4.020862,8.821634 5.207526,7.20934c1.185359,-1.610741 -2.535158,-8.779227 -2.535158,-8.779227c0.827791,-2.281091 0.418326,-4.783697 -1.117046,-8.070453c-1.505627,-3.223829 -3.519528,-6.979651 -5.002353,-7.350756c-1.073833,-2.115381 -5.465787,-2.52865 -3.658536,1.255532l0.000002,-0.000001zm9.331574,-29.685497c1.715733,2.161831 2.93389,3.791913 4.880345,6.328011c10.788277,14.06251 17.505633,28.986915 18.526592,31.632637c0.901563,2.334198 3.528152,10.206474 5.16189,14.456819a1.481173,6.079665 0 0 0 -0.173865,4.635101c1.239795,3.558878 3.250003,8.110862 5.78228,9.525788a5.790697,23.768655 0 0 0 1.962988,0.733033l0.075196,0.18196c0.294798,0.521532 0.359983,0.633028 0.359983,0.633028c6.465223,11.475729 10.567928,20.217868 13.16369,26.574563a5.345792,21.942482 0 0 1 1.108927,2.869551a5.574001,22.879195 0 0 1 2.95211,14.958776s0.000049,0.008554 -0.001079,0.027577l-0.002915,0.00251l-0.001432,0.018425s0.003188,0.006281 -0.001457,0.001255c-1.012203,-0.987355 -2.142245,-1.530266 -3.370669,-1.239325c-0.167337,0.03835 -3.304737,1.241877 1.457846,9.160544l-0.031435,0.132797c-1.563891,5.153293 -4.290294,9.598223 -9.370793,7.980384c-2.763682,-0.880866 -6.218179,-3.545869 -10.565554,-8.870169a10.330471,42.402732 0 0 1 -5.781735,-7.905049a24.066008,98.781993 0 0 1 -25.165917,-44.394423a24.812278,101.845154 0 0 1 -5.397039,-11.655346c-6.627838,-14.921539 -9.995526,-24.905144 -9.995526,-24.905144s-0.078506,-0.196732 -0.22438,-0.564541l0.001457,-0.001255c0.471204,-0.036091 0.867635,-0.553645 0.93775,-2.102846c0.184928,-4.177863 -3.439445,-13.19948 -5.46418,-17.915604a1.77955,7.304391 0 0 0 -2.162367,-3.980426l-0.003036,-0.005982a10.105176,41.477981 0 0 1 -0.525749,-6.173982a10.903325,44.754086 0 0 1 0.879989,-5.921317a14.540681,59.684078 0 0 1 1.303471,-2.426766c3.775104,-4.93356 6.978613,-4.810051 11.3712,-0.961072l0.004494,0.004727c-2.08107,-6.544127 -4.371776,-14.943287 -1.739143,-13.068494c3.563299,2.536507 8.429587,15.362312 10.047914,22.233956l0.000152,0.000299l-0.000003,0zm10.206011,22.600267c-2.241704,-6.881606 -7.221407,-13.168337 -9.630626,-15.799824c-2.405879,-2.624907 -6.715653,-4.492032 -3.429462,6.77722c1.969199,6.746611 4.909268,12.022463 7.034304,15.303512a2.736251,11.23129 0 0 0 5.143717,5.282041a8.055447,33.064608 0 0 0 1.782211,0.148569c2.494007,-0.305708 1.34156,-4.829912 -0.900144,-11.711518z" fill="#ffff00" id="svg_43" transform="rotate(-93.4776 373.792 174.897) matrix(-0.516922 -0.856033 0.856033 -0.516922 185.07 480.641)"/>
  <path d="m262.603185,155.714868a0.619425,1.95222 0 0 0 0.199839,0.32361c-0.613916,2.046493 -2.405442,11.13834 8.10079,25.432667c6.334547,8.619141 11.552025,13.328381 15.631813,14.938321c0,0 13.542771,22.814108 17.539606,18.644465c3.992439,-4.165624 -8.538731,-22.704436 -8.538731,-22.704436c2.788104,-5.899254 1.408975,-12.371378 -3.762352,-20.871438c-5.071141,-8.337319 -11.854214,-18.050454 -16.848555,-19.01019c-3.616806,-5.470702 -18.409462,-6.539478 -12.322409,3.247l-0.000001,0.000001zm31.429921,-76.771277c5.778804,5.59083 9.881713,9.806473 16.437618,16.365213c36.33628,36.367821 58.961181,74.964636 62.3999,81.806882c3.036577,6.036596 11.883263,26.395517 17.385896,37.387566a4.988779,15.722952 0 0 0 -0.5856,11.987086c4.175787,9.203807 10.946419,20.97594 19.47545,24.635157a19.5038,61.469409 0 0 0 6.611591,1.895736l0.253269,0.470576c0.992916,1.348761 1.212468,1.637108 1.212468,1.637108c21.775686,29.678006 35.594116,52.286526 44.33697,68.725922a18.005301,56.746645 0 0 1 3.735007,7.421101a18.773938,59.16913 0 0 1 9.94308,38.685703s0.000165,0.022121 -0.003636,0.071319l-0.009817,0.00649l-0.004824,0.04765s0.010738,0.016243 -0.004908,0.003245c-3.409227,-2.553452 -7.215352,-3.957504 -11.35284,-3.205087c-0.563612,0.09918 -11.130771,3.211686 4.910209,23.69058l-0.105878,0.343435c-5.267381,13.327212 -14.450252,24.822486 -31.562015,20.638505c-9.308428,-2.278056 -20.94361,-9.170164 -35.586119,-22.939627a34.794329,109.660008 0 0 1 -19.473615,-20.443676a81.057353,255.465479 0 0 1 -84.761985,-114.810829a83.570885,263.387285 0 0 1 -18.177909,-30.142523c-22.323396,-38.589401 -33.666194,-64.408546 -33.666194,-64.408546s-0.264418,-0.508778 -0.755741,-1.459991l0.004908,-0.003245c1.587076,-0.093336 2.922303,-1.431812 3.158461,-5.438283c0.622861,-10.804598 -11.584485,-34.135892 -18.404047,-46.332516a5.99375,18.890282 0 0 0 -7.283124,-10.293995l-0.010227,-0.015469a34.035508,107.268461 0 0 1 -1.770788,-15.96687a36.723775,115.740972 0 0 1 2.963914,-15.313439a48.97485,154.352235 0 0 1 4.390254,-6.275992c12.715025,-12.758947 23.504851,-12.439535 38.299636,-2.48548l0.015135,0.012224c-7.009306,-16.924123 -14.724693,-38.645647 -5.857653,-33.797141c12.001641,6.559799 28.391913,39.72931 33.842642,57.500441l0.000511,0.000773l0.000001,-0.000003zm34.375135,58.447777c-7.550342,-17.796895 -24.322611,-34.055351 -32.437165,-40.860782c-8.103305,-6.788414 -22.619168,-11.617089 -11.55086,17.526936c6.632511,17.447778 16.535036,31.091945 23.692422,39.577243a9.216038,29.045848 0 0 0 17.32469,13.660173a27.131763,85.510179 0 0 0 6.002713,0.384223c8.40013,-0.790609 4.518543,-12.490898 -3.031799,-30.287793l-0.000001,0z" fill="#ffff00" id="svg_36"/>
  <path d="m225.603224,169.714837a0.619425,1.952221 0 0 0 0.199838,0.32361c-0.613917,2.046493 -2.405446,11.138339 8.100781,25.43267c6.334544,8.619143 11.552021,13.328385 15.631808,14.938327c0,0 13.542763,22.814112 17.5396,18.644471c3.99244,-4.165622 -8.538724,-22.704439 -8.538724,-22.704439c2.788106,-5.899253 1.408979,-12.371377 -3.762345,-20.871439c-5.071139,-8.337321 -11.854208,-18.050458 -16.848549,-19.010195c-3.616804,-5.470704 -18.40946,-6.539484 -12.322411,3.246995l0.000002,0zm31.429946,-76.771266c5.778802,5.590832 9.88171,9.806476 16.437613,16.365219c36.336268,36.367834 58.961156,74.964655 62.399873,81.806902c3.036575,6.036597 11.883254,26.395521 17.385883,37.387572a4.98878,15.722955 0 0 0 -0.585604,11.987086c4.175784,9.203808 10.946412,20.975944 19.475441,24.635163a19.503804,61.469422 0 0 0 6.61159,1.895738l0.253269,0.470577c0.992916,1.348762 1.212468,1.637108 1.212468,1.637108c21.775676,29.678013 35.594099,52.286538 44.336947,68.725936a18.005305,56.746657 0 0 1 3.735004,7.421102a18.773942,59.169143 0 0 1 9.943067,38.685706s0.000165,0.022121 -0.003636,0.071319l-0.009817,0.00649l-0.004824,0.04765s0.010738,0.016243 -0.004908,0.003245c-3.409226,-2.553453 -7.21535,-3.957507 -11.352839,-3.20509c-0.563612,0.09918 -11.130772,3.211683 4.910201,23.690581l-0.105878,0.343435c-5.267385,13.32721 -14.450261,24.822482 -31.562022,20.638494c-9.308427,-2.278059 -20.943607,-9.170171 -35.586111,-22.939639a34.794337,109.660032 0 0 1 -19.473608,-20.443683a81.057371,255.465535 0 0 1 -84.761947,-114.810857a83.570903,263.387343 0 0 1 -18.177899,-30.142529c-22.323383,-38.589409 -33.666173,-64.408557 -33.666173,-64.408557s-0.264418,-0.508778 -0.75574,-1.459991l0.004908,-0.003245c1.587076,-0.093335 2.922303,-1.431811 3.158462,-5.438282c0.622864,-10.804598 -11.584474,-34.135896 -18.404032,-46.332522a5.993751,18.890286 0 0 0 -7.283121,-10.293997l-0.010227,-0.015469a34.035516,107.268485 0 0 1 -1.770782,-15.96687a36.723783,115.740998 0 0 1 2.963919,-15.313438a48.974861,154.352269 0 0 1 4.390256,-6.275991c12.71503,-12.758943 23.504855,-12.439527 38.299636,-2.485467l0.015135,0.012224c-7.0093,-16.924125 -14.72468,-38.645652 -5.857642,-33.797143c12.001639,6.559803 28.391899,39.72932 33.842623,57.500452l0.000511,0.000773l0.000004,-0.000002zm34.375115,58.447789c-7.550336,-17.796898 -24.3226,-34.05536 -32.437152,-40.860793c-8.103302,-6.788417 -22.619164,-11.617097 -11.550866,17.526932c6.632505,17.44778 16.535025,31.091951 23.692409,39.577251a9.21604,29.045855 0 0 0 17.324685,13.660179a27.131769,85.510198 0 0 0 6.002713,0.384225c8.40013,-0.790606 4.518547,-12.490896 -3.031789,-30.287794z" fill="#ffff00" id="svg_35"/>
  <path class="cls-1" d="m422.49,376.231c1.68,9.226 -11.03,17.058 -31.963,11.79a79.473,79.473 0 0 1 -15.193,-5.639c-17.324,-8.365 -14.454,-22.983 -9.041,-33.747a20.328,20.328 0 0 1 24.131,-10.436c26.284,8.16 30.303,28.376 32.066,38.032z" id="svg_1"/>
  <path class="cls-2" d="m138.675,209.383a2.524,2.524 0 0 0 -0.04,0.41c-5.577,1.476 -27.7,8.59 -24.706,27.699c1.804,11.522 7.77,18.862 16.32,22.737c0,0 -4.367,28.58 14.782,27.206c19.129,-1.373 18.35,-25.505 18.35,-25.505c18.964,-3.649 27.186,-10.292 28.457,-21.015c1.25,-10.517 0.225,-23.29 -12.137,-27.124c0,-7.073 -39.94,-16.833 -41.026,-4.408zm233.03,-50.374c5.905,8.467 9.636,14.7 15.93,24.5c34.855,54.331 26.654,102.512 23.578,110.713c-2.706,7.237 -15.786,30.815 -20.789,43.977a20.328,20.328 0 0 0 -24.131,10.436c-5.413,10.764 -8.283,25.382 9.041,33.747a79.473,79.473 0 0 0 15.193,5.638l-0.164,0.574c0.287,1.804 0.369,2.194 0.369,2.194c6.11,39.652 2.91,68.211 -3.117,88.201a73.367,73.367 0 0 1 -3.321,8.898a76.499,76.499 0 0 1 -44.326,40.718s-0.041,0.02 -0.144,0.062l-0.04,0l-0.103,0.04s0,0.021 -0.02,0c-4.88,-4.325 -13.04,-7.852 -26.182,-9.636c-1.784,-0.246 -37.581,-3.731 -30.487,24.234l-0.944,0.246c-39.918,8.857 -87.504,13.737 -128.18,-0.205c-22.123,-7.586 -42.194,-20.707 -57.9,-41.804a141.778,141.778 0 0 1 -16.893,-29.975a330.288,330.288 0 0 1 -25.116,-153.706a340.53,340.53 0 0 1 4.962,-37.93c9.042,-47.995 25.28,-77.97 25.28,-77.97s0.204,-0.615 0.594,-1.763l0.02,0c4.675,0.86 10.97,0.45 19.15,-3.014c22.02,-9.35 31.143,-37.601 34.67,-52.63a24.423,24.423 0 0 0 -1.354,-13.593l0,-0.02a138.686,138.686 0 0 1 24.91,-15.418a149.64,149.64 0 0 1 37.11,-12.014a199.56,199.56 0 0 1 24.213,-3.035c59.97,-3.916 89.965,2.789 113.255,20.544l0.02,0.02c11.851,-19.395 30.693,-43.526 46.746,-33.89c21.733,13.04 6.028,52.63 -11.83,71.86l0,0.001zm-12.096,73.029c11.953,-20.502 -5.126,-45.105 -15.377,-56.054c-10.251,-10.927 -42.358,-23.905 -65.607,8.898c-13.901,19.642 -11.4,37.807 -7.012,49.698a37.553,37.553 0 0 0 23.516,22.594a110.555,110.555 0 0 0 16.3,3.916c25.3,4.285 36.227,-8.55 48.18,-29.052z" id="svg_2"/>
  <path class="cls-1" d="m384.294,487.887c23.496,17.755 16.668,27.76 16.668,27.76c-12.978,15.357 -42.091,3.158 -42.091,3.158a75.687,75.687 0 0 0 25.423,-30.918z" id="svg_3"/>
  <path class="cls-3" d="m344.232,175.985c10.251,10.948 27.33,35.55 15.377,56.053s-22.88,33.337 -48.18,29.052a110.555,110.555 0 0 1 -16.3,-3.916a37.553,37.553 0 0 1 -23.516,-22.594c-4.388,-11.891 -6.89,-30.056 7.012,-49.698c23.25,-32.803 55.356,-19.825 65.607,-8.897zm-23.229,43.834c4.777,-3.342 0,-8.283 0,-12.343s-2.727,-13.04 -10.928,-12.342c-8.2,0.676 -7.524,24.685 -7.524,24.685c4.1,7.606 13.675,3.321 18.452,0z" id="svg_4"/>
  <path class="cls-1" d="m339.66,528.708c0.02,0.02 0.02,0 0.02,0c11.584,10.312 4.573,25.135 1.825,32.065c-4.428,11.092 -28.703,39.61 -52.63,-3.444a59.195,59.195 0 0 1 -5.883,-14.024c-7.094,-27.965 28.703,-24.48 30.487,-24.234c13.142,1.784 21.302,5.31 26.181,9.637z" id="svg_5"/>
  <path class="cls-4" d="m321.003,207.476c0,4.06 4.777,9 0,12.343c-4.777,3.321 -14.352,7.606 -18.452,0c0,0 -0.677,-24.009 7.524,-24.685c8.201,-0.697 10.928,8.283 10.928,12.342z" id="svg_6"/>
  <path class="cls-2" d="m176.461,50.243c10.23,0 28.909,23.722 22.84,53.266a149.64,149.64 0 0 0 -37.11,12.014c-2.788,0.041 -9.082,-1.948 -8.283,-21.2c1.026,-24.602 12.302,-44.08 22.553,-44.08z" id="svg_7"/>
  <path class="cls-1" d="m179.7,213.79c12.363,3.835 13.389,16.608 12.138,27.126c-1.271,10.722 -9.493,17.365 -28.457,21.015c-1.6,0.307 -3.26,0.594 -5.023,0.86a67.985,67.985 0 0 1 -13.327,0.76a40.938,40.938 0 0 1 -14.782,-3.322c-8.55,-3.875 -14.516,-11.215 -16.32,-22.737c-2.993,-19.109 19.129,-26.223 24.705,-27.7a9.662,9.662 0 0 0 0.923,3.958s4.613,10.251 33.316,4.1c4.839,-1.045 6.828,-2.48 6.828,-4.06l-0.001,0zm-25.832,329.556c-3.67,9.657 -9.985,14.29 -16.505,16.28c-12.63,3.833 -26.1,-2.277 -32.701,-13.717c-11.502,-19.867 -9.062,-41.64 -8.693,-44.367c15.705,21.097 35.776,34.218 57.899,41.804z" id="svg_8"/>
  <path class="cls-3" d="m137.281,130.961a24.423,24.423 0 0 1 1.353,13.593c-3.526,15.029 -12.65,43.28 -34.67,52.63c-8.18,3.465 -14.474,3.875 -19.149,3.014l-0.02,0c-7.893,-1.415 -11.194,-6.438 -11.194,-6.438c-1.353,-2.05 -17.079,-28.027 17.099,-62.184c25.34,-25.361 41.415,-14.208 46.581,-0.635l0,0.02zm-44.531,33.03s9.554,-15.336 4.1,-19.437c-5.474,-4.1 -16.402,-6.52 -16.402,9.718c0,16.259 12.302,9.719 12.302,9.719z" id="svg_9"/>
  <path class="cls-4" d="m96.85,144.554c5.454,4.1 -4.1,19.437 -4.1,19.437s-12.302,6.54 -12.302,-9.719c0,-16.237 10.928,-13.818 16.402,-9.718z" id="svg_10"/>
  <path class="cls-1" d="m58.921,279.932a340.53,340.53 0 0 0 -4.962,37.929l-0.943,-0.062c-31.204,4.101 -50.825,-16.401 -42.624,-31.778s48.529,-6.09 48.529,-6.09l0,0.001z" id="svg_11"/>
  <path class="cls-5" d="m137.281,130.94a138.686,138.686 0 0 1 24.91,-15.417a149.64,149.64 0 0 1 37.11,-12.014a199.56,199.56 0 0 1 24.213,-3.035c59.97,-3.916 89.965,2.789 113.255,20.544m-200.021,10.332a8.78,8.78 0 0 1 0.533,-0.389m-52.466,69.237c0.185,-0.554 0.431,-1.21 0.739,-1.989m196.494,345.342c-39.918,8.857 -87.504,13.737 -128.18,-0.205c-22.123,-7.586 -42.194,-20.707 -57.9,-41.804a141.778,141.778 0 0 1 -16.893,-29.975a330.288,330.288 0 0 1 -25.116,-153.706a340.53,340.53 0 0 1 4.962,-37.93c9.042,-47.995 25.28,-77.97 25.28,-77.97s0.204,-0.615 0.594,-1.763m254.865,328.51c-0.102,0.04 -0.164,0.061 -0.164,0.082a0.12,0.12 0 0 0 -0.082,0.02m51.297,-138.227a0.698,0.698 0 0 1 0.02,0.205c6.11,39.652 2.912,68.211 -3.116,88.201a73.367,73.367 0 0 1 -3.321,8.898a76.499,76.499 0 0 1 -44.326,40.718s-0.041,0.02 -0.144,0.062l-0.04,0l-0.103,0.04m50.682,-140.113c0.287,1.804 0.369,2.194 0.369,2.194m-19.027,-231.779c5.905,8.467 9.636,14.7 15.93,24.5c34.855,54.331 26.654,102.512 23.578,110.713c-2.706,7.237 -15.786,30.815 -20.789,43.977" id="svg_12"/>
  <path class="cls-5" d="m130.249,260.229s-4.367,28.58 14.782,27.206c19.129,-1.373 18.35,-25.505 18.35,-25.505m-18.35,25.505s-1.374,-17.18 0,-23.823m-6.397,-53.819a9.662,9.662 0 0 0 0.923,3.957s4.613,10.251 33.316,4.1c4.839,-1.045 6.828,-2.48 6.828,-4.06c0,-7.072 -39.94,-16.832 -41.026,-4.407a2.524,2.524 0 0 0 -0.04,0.41l-0.001,0zm-53.839,-9.595c-7.893,-1.415 -11.194,-6.438 -11.194,-6.438c-1.353,-2.05 -17.079,-28.027 17.099,-62.184c25.34,-25.361 41.415,-14.208 46.581,-0.635l0,0.02a24.423,24.423 0 0 1 1.353,13.593c-3.526,15.029 -12.65,43.28 -34.67,52.63c-8.18,3.465 -14.474,3.875 -19.148,3.014l-0.021,0zm210.334,56.976a37.553,37.553 0 0 1 -23.516,-22.594c-4.388,-11.891 -6.89,-30.056 7.012,-49.697c23.25,-32.804 55.356,-19.826 65.607,-8.898c10.251,10.948 27.33,35.55 15.377,56.053s-22.88,33.337 -48.18,29.052a110.555,110.555 0 0 1 -16.3,-3.916z" id="svg_14"/>
  <path d="m282.986,545.037s-1.13,-23.88 13.968,-24.992s24.602,0.191 32.25,3.355c5.198,2.15 -12.29,-6.825 -24.03,-12.796a81.188,81.188 0 0 1 -22.94,-17.07c-24.506,-26.518 -33.875,-62.157 -53.492,-103.814c-23.578,-50.068 -54.331,-47.318 -89.651,-51.526s-72.724,97.612 -72.724,97.612c10.6,50.254 47.285,84.78 47.285,84.78l31.002,19.216c14.57,14.72 84.088,11.69 84.088,11.69s28.53,-0.38 54.244,-6.455" fill="#d7dfed" id="svg_15"/>
  <ellipse class="cls-7" cx="173.061" cy="86.982" id="svg_16" rx="12.301" ry="19.477"/>
  <ellipse class="cls-7" cx="361.812" cy="126.354" id="svg_17" rx="23.909" ry="14.986" transform="rotate(-66.004 361.812 126.354)"/>
  <path d="m113.929,232.42s0.507,58.636 22.806,60.243s53.463,-20.393 52.552,-49.138s-75.358,-11.105 -75.358,-11.105z" fill="url(#linear-gradient)" id="svg_18"/>
  <path d="m341.73,527.73s23.24,-16.136 29.96,-50.99s-4.595,-88.033 -5.945,-102.578s-6.489,4.293 26.666,13.456c0,0 6.288,71.035 -2.743,90.387s-24.134,37.156 -47.937,49.724l-0.001,0.001z" fill="url(#linear-gradient-2)" id="svg_19"/>
  <path d="m378.606,337.298s21.13,-26.674 23.28,-56.403s1.81,-67.826 -3.156,-77.474s12.434,27.209 13.985,45.183s2.927,36.046 -1.502,45.618s-20.789,43.977 -20.789,43.977s-7.107,-3.95 -11.818,-0.901z" fill="url(#linear-gradient-3)" id="svg_20"/>
  <path d="m55.063,305.751s21.489,-86.951 34.027,-103.913m49.123,-67.898s43.347,-42.69 164.324,-29.364m-146.36,-26.509s13.792,-25.773 20.284,-27.824m168.558,58.4s25.19,-24.229 38.516,-21.495" fill="none" id="svg_21" stroke="#fff" stroke-miterlimit="10"/>
  <path class="cls-5" d="m136.735,131.359c20.829,-15.674 49.071,-28.42 86.783,-30.885c59.962,-3.919 89.958,2.794 113.26,20.553m-54.72,422.523c-70.49,15.614 -164.86,18.877 -202.983,-71.983c-61.507,-146.592 5.125,-269.606 5.125,-269.606s0.377,-1.201 1.202,-3.343m304.958,189.978c0.506,3.165 0.351,1.987 0.351,1.987c6.149,39.76 2.955,68.375 -3.093,88.4a76.193,76.193 0 0 1 -47.946,49.734c-0.94,0.328 0.989,-0.337 0,0m32.028,-369.702c5.911,8.462 9.643,14.685 15.936,24.494c34.854,54.331 26.653,102.512 23.577,110.713c-2.713,7.236 -15.783,30.821 -20.796,43.972" id="svg_24"/>
  <path class="cls-5" d="m58.924,279.937s-40.331,-9.293 -48.532,6.084s11.421,35.879 42.615,31.779m337.41,20.394a20.359,20.359 0 0 0 -24.133,10.446c-5.407,10.752 -8.272,25.38 9.05,33.742c29.729,14.352 49.206,5.126 47.156,-6.15c-1.758,-9.667 -5.775,-29.881 -32.073,-38.038zm-226.963,-222.857s-10.57,3.59 -9.545,-21.013s12.301,-44.08 22.552,-44.08s28.96,23.798 22.81,53.413" id="svg_25"/>
  <path class="cls-4" d="m325.103,142.504a196.224,196.224 0 0 1 22.975,-39.14a86.19,86.19 0 0 1 7.555,-8.584a50.546,50.546 0 0 1 9,-7.199a22.166,22.166 0 0 1 11.144,-3.563a15.125,15.125 0 0 1 5.9,1.118a20.997,20.997 0 0 1 5.08,3.088a21.747,21.747 0 0 1 6.628,9.661a31.937,31.937 0 0 1 1.606,11.503a54.164,54.164 0 0 1 -1.656,11.389a73.739,73.739 0 0 1 -3.63,10.862a99.072,99.072 0 0 1 -11.246,19.815a79.172,79.172 0 0 1 -7.427,8.634a43.156,43.156 0 0 1 -8.91,7.019a46.818,46.818 0 0 0 8.53,-7.387a78.432,78.432 0 0 0 7.01,-8.836a98.495,98.495 0 0 0 10.617,-19.824c2.654,-6.986 4.72,-14.295 4.892,-21.716a30.09,30.09 0 0 0 -1.587,-10.818a19.85,19.85 0 0 0 -6.094,-8.758a19.079,19.079 0 0 0 -4.547,-2.823a13.188,13.188 0 0 0 -5.16,-1.02a20.342,20.342 0 0 0 -10.216,3.215c-6.333,3.826 -11.503,9.436 -16.294,15.18a173.472,173.472 0 0 0 -12.995,18.472c-4.017,6.39 -7.716,12.987 -11.175,19.712z" id="svg_26"/>
  <path class="cls-5" d="m96.004,501.259s-3.634,23.409 8.65,44.651c6.614,11.435 20.073,17.552 32.711,13.707c6.662,-2.027 13.128,-6.815 16.762,-16.948m154.575,-23.864c-9.962,-0.079 -31.337,2.316 -25.716,24.502" id="svg_27"/>
  <path class="cls-5" d="m308.702,518.805a44.792,44.792 0 0 1 4.783,0.26c44.419,6.073 31.94,31.87 28.02,41.7c-4.425,11.098 -28.703,39.626 -52.622,-3.43a59.606,59.606 0 0 1 -5.897,-14.028m75.887,-24.503s29.104,12.208 42.09,-3.156c0,0 6.833,-10.008 -16.665,-27.77" id="svg_28"/>
  <path class="cls-1" d="m139.899,209.479s-29.387,6.15 -25.97,28.02s21.87,28.703 44.422,25.286s32.12,-10.251 33.487,-21.87s0,-25.97 -16.402,-28.02q-1.264,-0.157 -2.546,-0.31" id="svg_29"/>
  <path class="cls-4" d="m139.89,209.578l-0.626,0.004l-0.313,0.002l-0.157,0.001l-0.118,0l-0.02,0.001l-0.016,0c0.015,-0.184 -0.033,0.412 0.032,-0.413l1.25,0.016l1.938,0.024l-1.9,0.55c-7.219,2.09 -14.319,5.391 -19.56,10.643a19.089,19.089 0 0 0 -5.845,14.804a21.357,21.357 0 0 0 0.297,2.744l0.218,1.385l0.286,1.37a30.137,30.137 0 0 0 4.265,10.289a24.867,24.867 0 0 0 8.164,7.628a33.235,33.235 0 0 0 10.616,3.765a50.304,50.304 0 0 0 11.288,0.595a85.937,85.937 0 0 0 11.23,-1.453a97.99,97.99 0 0 0 10.99,-2.668a41.353,41.353 0 0 0 10.141,-4.56a19.025,19.025 0 0 0 7.201,-7.883a18.373,18.373 0 0 0 1.513,-5.174c0.254,-1.83 0.424,-3.718 0.507,-5.578a31.073,31.073 0 0 0 -1.275,-10.987a18.008,18.008 0 0 0 -2.463,-4.881a14.754,14.754 0 0 0 -3.992,-3.747a19.524,19.524 0 0 0 -5.087,-2.273a49.476,49.476 0 0 0 -5.575,-1.097l0.024,-0.199a41.046,41.046 0 0 1 5.706,0.68a18.798,18.798 0 0 1 5.45,2.037a16.827,16.827 0 0 1 7.396,8.965a32.749,32.749 0 0 1 1.717,11.55a48.959,48.959 0 0 1 -0.392,5.81a19.34,19.34 0 0 1 -9.591,14.552a43.303,43.303 0 0 1 -10.72,4.612a85.028,85.028 0 0 1 -11.27,2.463a73.894,73.894 0 0 1 -11.474,1.029a53.821,53.821 0 0 1 -11.464,-1.066a35.879,35.879 0 0 1 -10.786,-3.956a28.662,28.662 0 0 1 -8.637,-7.61a31.148,31.148 0 0 1 -4.956,-10.48l-0.366,-1.411l-0.292,-1.428a23.03,23.03 0 0 1 -0.393,-2.924a19.65,19.65 0 0 1 0.462,-5.93a20.928,20.928 0 0 1 5.937,-10.142a34.25,34.25 0 0 1 9.661,-6.456a47.2,47.2 0 0 1 10.949,-3.587l0.036,0.575l-1.238,-0.183l0.001,0c0.066,-0.825 0.02,-0.229 0.034,-0.413l0.003,0l0.005,0.002l0.01,0.001l0.019,0.003l0.038,0.007l0.078,0.013l0.154,0.025l0.31,0.052l0.617,0.103l-0.017,0.199z" id="svg_30"/>
  <path d="m139.557,213.75s4.613,10.251 33.316,4.1s-43.055,-26.653 -33.316,-4.1z" fill="#b8b3b1" id="svg_32" stroke="#231f20" stroke-miterlimit="10" stroke-width="2"/>
  <path class="cls-5" d="m73.608,193.76c-1.367,-2.05 -17.086,-28.02 17.085,-62.19s51.474,-2.05 47.948,12.984s-12.665,43.279 -34.686,52.623s-30.347,-3.417 -30.347,-3.417zm221.512,63.41a37.557,37.557 0 0 1 -23.502,-22.581c-4.396,-11.897 -6.9,-30.07 7.013,-49.713c23.236,-32.804 55.357,-19.82 65.608,-8.885s27.32,35.538 15.369,56.04s-22.887,33.351 -48.173,29.068a112.18,112.18 0 0 1 -16.315,-3.93l0,0.001z" id="svg_33"/>
  <path class="cls-4" d="m302.55,219.816s-0.683,-24.006 7.518,-24.69s10.935,8.288 10.935,12.345s4.784,9.014 0,12.345s-14.352,7.603 -18.452,0l-0.001,0zm-209.807,-55.82s9.568,-15.341 4.1,-19.442s-16.401,-6.528 -16.401,9.721s12.301,9.721 12.301,9.721z" id="svg_34"/>
  <path d="m174.129855,61.790526a0.316891,1.344601 0 0 0 0.102235,0.222888c-0.314073,1.409532 -1.230596,7.671586 4.14427,17.516873c3.240681,5.936475 5.909882,9.179987 7.997054,10.288841c0,0 6.928324,15.713327 8.973059,12.841466c2.042485,-2.869094 -4.368316,-15.637791 -4.368316,-15.637791c1.426362,-4.06314 0.720815,-8.520847 -1.924775,-14.375304c-2.594337,-5.742369 -6.064478,-12.432338 -8.619525,-13.093361c-1.850316,-3.767973 -9.418067,-4.504097 -6.304002,2.236387l0,0.000001zm16.079183,-52.87659c2.956369,3.850711 5.05537,6.754256 8.409295,11.27162c18.589219,25.048514 30.163856,51.632257 31.923065,56.344887c1.553478,4.157735 6.079339,18.180041 8.894422,25.750867a2.552201,10.829259 0 0 0 -0.299586,8.256164c2.136284,6.339167 5.600061,14.447281 9.963414,16.967584a9.977918,42.337354 0 0 0 3.382413,1.305697l0.12957,0.324112c0.507964,0.928966 0.620285,1.127566 0.620285,1.127566c11.140188,20.440871 18.209537,36.012599 22.682279,47.335312a9.211303,39.084527 0 0 1 1.910786,5.111319a9.604529,40.753026 0 0 1 5.086764,26.644966s0.000084,0.015236 -0.00186,0.049121l-0.005022,0.00447l-0.002468,0.032819s0.005494,0.011187 -0.002511,0.002235c-1.744121,-1.758702 -3.69129,-2.72575 -5.807981,-2.207519c-0.288337,0.068311 -5.694373,2.212065 2.512006,16.317002l-0.054166,0.236542c-2.694731,9.179182 -7.392581,17.096608 -16.146761,14.21487c-4.762084,-1.569022 -10.714508,-6.315995 -18.205445,-15.79978a17.800375,75.528863 0 0 1 -9.962475,-14.080681a41.468001,175.953089 0 0 1 -43.363248,-79.076516a42.753895,181.409272 0 0 1 -9.299607,-20.760809c-11.42039,-26.578638 -17.223234,-44.361699 -17.223234,-44.361699s-0.135273,-0.350424 -0.386628,-1.005576l0.002511,-0.002235c0.811929,-0.064285 1.495016,-0.986168 1.615832,-3.745644c0.318648,-7.441719 -5.926488,-23.511261 -9.415297,-31.911746a3.066333,13.010773 0 0 0 -3.725962,-7.090039l-0.005232,-0.010655a17.412171,73.881673 0 0 1 -0.905914,-10.997259a18.787457,79.717157 0 0 1 1.516304,-10.547205a25.054965,106.310851 0 0 1 2.246003,-4.32262c6.504859,-8.787787 12.024809,-8.56779 19.593649,-1.711886l0.007743,0.00842c-3.585879,-11.656572 -7.532982,-26.617377 -2.996708,-23.277945c6.1399,4.518094 14.524973,27.363755 17.313503,39.603708l0.000262,0.000533l-0.000001,0zm17.58592,40.25619c-3.862667,-12.257698 -12.443165,-23.455789 -16.594477,-28.143062c-4.145557,-4.675553 -11.571704,-8.001326 -5.909286,12.071762c3.393116,12.017242 8.459132,21.414728 12.120768,27.259018a4.714818,20.005469 0 0 0 8.86311,9.408511a13.880295,58.895551 0 0 0 3.070918,0.264636c4.297409,-0.544536 2.311634,-8.603167 -1.551033,-20.860865z" fill="#ffff00" id="svg_40" transform="rotate(-76.5245 217.72 103.72)"/>
  <path d="m204.946653,95.478574a0.194149,0.885791 0 0 0 0.062636,0.146833c-0.192422,0.928567 -0.753947,5.05386 2.539063,11.539703c1.985462,3.91081 3.620797,6.047559 4.899541,6.778046c0,0 4.244765,10.351569 5.497509,8.459655c1.251366,-1.890091 -2.676329,-10.301807 -2.676329,-10.301807c0.873886,-2.676701 0.441621,-5.613333 -1.179249,-9.470111c-1.589468,-3.782937 -3.715514,-8.190131 -5.28091,-8.625597c-1.13363,-2.482252 -5.770151,-2.967193 -3.862262,1.473279l0.000001,-0.000001zm9.851205,-34.83385c1.811274,2.536758 3.097265,4.449544 5.152108,7.425477c11.389025,16.50137 18.480437,34.014112 19.558249,37.118682c0.951767,2.739017 3.724618,11.976582 5.44933,16.964064a1.563653,7.13406 0 0 0 -0.183547,5.438966c1.308833,4.176093 3.43098,9.517528 6.104268,11.177844a6.113154,27.89085 0 0 0 2.072297,0.860162l0.079383,0.213517c0.311214,0.611981 0.380029,0.742814 0.380029,0.742814c6.82524,13.465963 11.156406,23.72425 13.896713,31.183387a5.643473,25.747964 0 0 1 1.170678,3.367216a5.88439,26.847132 0 0 1 3.116499,17.553075s0.000052,0.010037 -0.00114,0.03236l-0.003077,0.002945l-0.001512,0.021621s0.003366,0.00737 -0.001538,0.001472c-1.068568,-1.158592 -2.261536,-1.79566 -3.558366,-1.454261c-0.176655,0.045002 -3.488762,1.457256 1.539026,10.749256l-0.033186,0.155829c-1.650976,6.047028 -4.5292,11.262842 -9.892608,9.364421c-2.917578,-1.033635 -6.564439,-4.160828 -11.153899,-10.408522a10.905725,49.756633 0 0 1 -6.103693,-9.276021a25.406129,115.913743 0 0 1 -26.567286,-52.093743a26.193955,119.508147 0 0 1 -5.697574,-13.676731c-6.996911,-17.509379 -10.552129,-29.224441 -10.552129,-29.224441s-0.082878,-0.230851 -0.236875,-0.66245l0.001538,-0.001472c0.497443,-0.04235 0.915949,-0.649664 0.989969,-2.467542c0.195226,-4.902429 -3.630971,-15.488664 -5.768454,-21.022705a1.878645,8.57119 0 0 0 -2.282779,-4.67075l-0.003206,-0.007019a10.667885,48.671503 0 0 1 -0.555025,-7.244735a11.510479,52.515782 0 0 1 0.928991,-6.94825a15.350382,70.03508 0 0 1 1.376055,-2.84764c3.985321,-5.789187 7.367219,-5.644258 12.004407,-1.12775l0.004744,0.005547c-2.196955,-7.679074 -4.615219,-17.5349 -1.835988,-15.334961c3.761722,2.976414 8.89899,18.026596 10.607434,26.089988l0.00016,0.000351l0.000004,-0.000001zm10.774335,26.519828c-2.366534,-8.075082 -7.623533,-15.45212 -10.16691,-18.539985c-2.539851,-3.080144 -7.089616,-5.271085 -3.620432,7.952592c2.078854,7.916675 5.182642,14.107518 7.42601,17.957598a2.888619,13.179131 0 0 0 5.430146,6.198105a8.504016,38.798999 0 0 0 1.881454,0.174336c2.632886,-0.358727 1.416265,-5.667563 -0.950269,-13.742645l0.000001,-0.000001z" fill="#ffff00" id="svg_41" transform="rotate(-101.614 231.653 123.101)"/>
  <path d="m263.079306,168.924844a-0.095066,-0.390211 0 0 0 0.076447,-0.115474c0.771622,-0.253023 4.056033,-1.614978 7.175104,-7.142368c1.880796,-3.332768 2.638833,-5.600113 2.545589,-6.958815c0,0 5.473138,-8.002087 3.479548,-8.18448c-1.991586,-0.182079 -6.204829,6.708354 -6.204829,6.708354c-2.380592,0.47053 -4.311244,2.114697 -6.331148,5.128023c-1.981412,2.955334 -4.15549,6.620767 -3.706663,8.081947c-1.255748,2.012723 0.660778,5.986009 2.965955,2.482815l-0.000002,-0.000001l-0.000001,-0.000001zm-30.23546,7.356951c0.963698,-2.586222 1.72941,-4.47163 2.894228,-7.448824c6.461274,-16.504342 15.764708,-29.969373 17.501777,-32.210979c1.532113,-1.978366 6.913299,-8.296165 9.707219,-11.891796a-0.765651,-3.142713 0 0 0 4.057674,-2.247151c2.40564,-2.900968 5.263167,-6.974793 5.165401,-9.873912a-2.993339,-12.286541 0 0 0 -0.387211,-2.059303l0.116893,-0.158429c0.294061,-0.521948 0.35581,-0.635383 0.35581,-0.635383c6.481586,-11.466501 11.844367,-19.497555 15.944101,-25.005529a-2.763357,-11.342552 0 0 1 1.883201,-2.432612a-2.881324,-11.826759 0 0 1 11.279195,-10.259624s0.007297,-0.004464 0.024165,-0.013331l0.003655,0.001198l0.016513,-0.008298s0.003729,-0.005976 0.001827,0.000599c-0.321978,1.376865 -0.202585,2.624861 0.68147,3.526038c0.119329,0.123422 2.771379,2.18701 7.088135,-5.983251l0.129928,-0.041736c5.219798,-1.325108 10.434143,-1.288899 11.675441,3.896472c0.674558,2.821142 0.178933,7.155904 -2.13159,13.629648a-5.340048,-21.918905 0 0 1 -3.778277,9.035649a-12.440249,-51.062585 0 0 1 -24.994274,44.491308a-12.826012,-52.646 0 0 1 -7.187512,10.644948c-9.347254,13.38692 -16.152717,21.430517 -16.152717,21.430517s-0.127828,0.168899 -0.367279,0.4839l-0.001827,-0.000599c-0.274471,-0.38471 -0.922438,-0.456533 -2.284849,0.284262c-3.671982,2.001325 -9.521265,9.76738 -12.511793,13.938488a-0.919889,-3.7758 0 0 0 -2.289601,3.908627l-0.003551,0.005691a-5.223588,-21.440881 0 0 1 -5.013361,3.641526a-5.636169,-23.134372 0 0 1 -5.523728,2.307559a-7.516398,-30.852013 0 0 1 -2.751185,0.138635c-6.174724,-0.681348 -7.724961,-3.487502 -6.700733,-9.237323l0.001723,-0.006291c-4.526238,5.164268 -10.532079,11.466898 -10.28806,8.244156c0.329386,-4.361478 8.793207,-15.157121 13.839012,-20.094567l0.000177,-0.000285l0.000002,0.000003l0.000001,-0.000001zm14.070862,-20.419257c-4.732095,5.476226 -7.539626,12.988766 -8.546888,16.41141c-1.003355,3.416384 -0.373859,8.070851 7.574288,-0.567562c4.757399,-5.173171 7.753916,-10.417171 9.464124,-13.932318a-1.414428,-5.805701 0 0 0 1.862701,-7.133595a-4.164038,-17.091823 0 0 0 -0.794084,-1.60243c-1.550903,-1.976925 -4.828046,1.348268 -9.560141,6.824494l0,0.000001z" fill="#ffff00" id="svg_42"/>
  <path d="m172.922902,146.80849a0.183908,0.754874 0 0 0 0.059332,0.125132c-0.182272,0.791327 -0.714178,4.306912 2.405132,9.834165c1.880733,3.332802 3.429808,5.153746 4.641101,5.776268c0,0 4.020862,8.821634 5.207526,7.20934c1.185359,-1.610741 -2.535158,-8.779227 -2.535158,-8.779227c0.827791,-2.281091 0.418326,-4.783697 -1.117046,-8.070453c-1.505627,-3.223829 -3.519528,-6.979651 -5.002353,-7.350756c-1.073833,-2.115381 -5.465787,-2.52865 -3.658536,1.255532l0.000002,-0.000001zm9.331574,-29.685497c1.715733,2.161831 2.93389,3.791913 4.880345,6.328011c10.788277,14.06251 17.505633,28.986915 18.526592,31.632637c0.901563,2.334198 3.528152,10.206474 5.16189,14.456819a1.481173,6.079665 0 0 0 -0.173865,4.635101c1.239795,3.558878 3.250003,8.110862 5.78228,9.525788a5.790697,23.768655 0 0 0 1.962988,0.733033l0.075196,0.18196c0.294798,0.521532 0.359983,0.633028 0.359983,0.633028c6.465223,11.475729 10.567928,20.217868 13.16369,26.574563a5.345792,21.942482 0 0 1 1.108927,2.869551a5.574001,22.879195 0 0 1 2.95211,14.958776s0.000049,0.008554 -0.001079,0.027577l-0.002915,0.00251l-0.001432,0.018425s0.003188,0.006281 -0.001457,0.001255c-1.012203,-0.987355 -2.142245,-1.530266 -3.370669,-1.239325c-0.167337,0.03835 -3.304737,1.241877 1.457846,9.160544l-0.031435,0.132797c-1.563891,5.153293 -4.290294,9.598223 -9.370793,7.980384c-2.763682,-0.880866 -6.218179,-3.545869 -10.565554,-8.870169a10.330471,42.402732 0 0 1 -5.781735,-7.905049a24.066008,98.781993 0 0 1 -25.165917,-44.394423a24.812278,101.845154 0 0 1 -5.397039,-11.655346c-6.627838,-14.921539 -9.995526,-24.905144 -9.995526,-24.905144s-0.078506,-0.196732 -0.22438,-0.564541l0.001457,-0.001255c0.471204,-0.036091 0.867635,-0.553645 0.93775,-2.102846c0.184928,-4.177863 -3.439445,-13.19948 -5.46418,-17.915604a1.77955,7.304391 0 0 0 -2.162367,-3.980426l-0.003036,-0.005982a10.105176,41.477981 0 0 1 -0.525749,-6.173982a10.903325,44.754086 0 0 1 0.879989,-5.921317a14.540681,59.684078 0 0 1 1.303471,-2.426766c3.775104,-4.93356 6.978613,-4.810051 11.3712,-0.961072l0.004494,0.004727c-2.08107,-6.544127 -4.371776,-14.943287 -1.739143,-13.068494c3.563299,2.536507 8.429587,15.362312 10.047914,22.233956l0.000152,0.000299l-0.000003,0zm10.206011,22.600267c-2.241704,-6.881606 -7.221407,-13.168337 -9.630626,-15.799824c-2.405879,-2.624907 -6.715653,-4.492032 -3.429462,6.77722c1.969199,6.746611 4.909268,12.022463 7.034304,15.303512a2.736251,11.23129 0 0 0 5.143717,5.282041a8.055447,33.064608 0 0 0 1.782211,0.148569c2.494007,-0.305708 1.34156,-4.829912 -0.900144,-11.711518z" fill="#ffff00" id="svg_48" transform="rotate(27.2863 447.53 370.711) matrix(-0.823101 0.567896 -0.567896 -0.823101 707.425 398.356)"/>
  <path d="m134.565588,325.665064a0.183908,0.754874 0 0 0 0.059332,0.125132c-0.182272,0.791327 -0.714178,4.306912 2.405132,9.834165c1.880733,3.332802 3.429808,5.153746 4.641101,5.776268c0,0 4.020862,8.821634 5.207526,7.20934c1.185359,-1.610741 -2.535158,-8.779227 -2.535158,-8.779227c0.827791,-2.281091 0.418326,-4.783697 -1.117046,-8.070453c-1.505627,-3.223829 -3.519528,-6.979651 -5.002353,-7.350756c-1.073833,-2.115381 -5.465787,-2.52865 -3.658536,1.255532l0.000002,-0.000001zm9.331574,-29.685497c1.715733,2.161831 2.93389,3.791913 4.880345,6.328011c10.788277,14.06251 17.505633,28.986915 18.526592,31.632637c0.901563,2.334198 3.528152,10.206474 5.16189,14.456819a1.481173,6.079665 0 0 0 -0.173865,4.635101c1.239795,3.558878 3.250003,8.110862 5.78228,9.525788a5.790697,23.768655 0 0 0 1.962988,0.733033l0.075196,0.18196c0.294798,0.521532 0.359983,0.633028 0.359983,0.633028c6.465223,11.475729 10.567928,20.217868 13.16369,26.574563a5.345792,21.942482 0 0 1 1.108927,2.869551a5.574001,22.879195 0 0 1 2.95211,14.958776s0.000049,0.008554 -0.001079,0.027577l-0.002915,0.00251l-0.001432,0.018425s0.003188,0.006281 -0.001457,0.001255c-1.012203,-0.987355 -2.142245,-1.530266 -3.370669,-1.239325c-0.167337,0.03835 -3.304737,1.241877 1.457846,9.160544l-0.031435,0.132797c-1.563891,5.153293 -4.290294,9.598223 -9.370793,7.980384c-2.763682,-0.880866 -6.218179,-3.545869 -10.565554,-8.870169a10.330471,42.402732 0 0 1 -5.781735,-7.905049a24.066008,98.781993 0 0 1 -25.165917,-44.394423a24.812278,101.845154 0 0 1 -5.397039,-11.655346c-6.627838,-14.921539 -9.995526,-24.905144 -9.995526,-24.905144s-0.078506,-0.196732 -0.22438,-0.564541l0.001457,-0.001255c0.471204,-0.036091 0.867635,-0.553645 0.93775,-2.102846c0.184928,-4.177863 -3.439445,-13.19948 -5.46418,-17.915604a1.77955,7.304391 0 0 0 -2.162367,-3.980426l-0.003036,-0.005982a10.105176,41.477981 0 0 1 -0.525749,-6.173982a10.903325,44.754086 0 0 1 0.879989,-5.921317a14.540681,59.684078 0 0 1 1.303471,-2.426766c3.775104,-4.93356 6.978613,-4.810051 11.3712,-0.961072l0.004494,0.004727c-2.08107,-6.544127 -4.371776,-14.943287 -1.739143,-13.068494c3.563299,2.536507 8.429587,15.362312 10.047914,22.233956l0.000152,0.000299l-0.000003,0zm10.206011,22.600267c-2.241704,-6.881606 -7.221407,-13.168337 -9.630626,-15.799824c-2.405879,-2.624907 -6.715653,-4.492032 -3.429462,6.77722c1.969199,6.746611 4.909268,12.022463 7.034304,15.303512a2.736251,11.23129 0 0 0 5.143717,5.282041a8.055447,33.064608 0 0 0 1.782211,0.148569c2.494007,-0.305708 1.34156,-4.829912 -0.900144,-11.711518z" fill="#ffff00" id="svg_49" transform="rotate(73.7812 377.53 201.711) matrix(-0.823101 0.567896 -0.567896 -0.823101 707.425 398.356)"/>
  <path d="m149.946018,425.840885a0.183908,0.754874 0 0 0 0.059332,0.125132c-0.182272,0.791327 -0.714178,4.306912 2.405132,9.834165c1.880733,3.332802 3.429808,5.153746 4.641101,5.776268c0,0 4.020862,8.821634 5.207526,7.20934c1.185359,-1.610741 -2.535158,-8.779227 -2.535158,-8.779227c0.827791,-2.281091 0.418326,-4.783697 -1.117046,-8.070453c-1.505627,-3.223829 -3.519528,-6.979651 -5.002353,-7.350756c-1.073833,-2.115381 -5.465787,-2.52865 -3.658536,1.255532l0.000002,-0.000001zm9.331574,-29.685497c1.715733,2.161831 2.93389,3.791913 4.880345,6.328011c10.788277,14.06251 17.505633,28.986915 18.526592,31.632637c0.901563,2.334198 3.528152,10.206474 5.16189,14.456819a1.481173,6.079665 0 0 0 -0.173865,4.635101c1.239795,3.558878 3.250003,8.110862 5.78228,9.525788a5.790697,23.768655 0 0 0 1.962988,0.733033l0.075196,0.18196c0.294798,0.521532 0.359983,0.633028 0.359983,0.633028c6.465223,11.475729 10.567928,20.217868 13.16369,26.574563a5.345792,21.942482 0 0 1 1.108927,2.869551a5.574001,22.879195 0 0 1 2.95211,14.958776s0.000049,0.008554 -0.001079,0.027577l-0.002915,0.00251l-0.001432,0.018425s0.003188,0.006281 -0.001457,0.001255c-1.012203,-0.987355 -2.142245,-1.530266 -3.370669,-1.239325c-0.167337,0.03835 -3.304737,1.241877 1.457846,9.160544l-0.031435,0.132797c-1.563891,5.153293 -4.290294,9.598223 -9.370793,7.980384c-2.763682,-0.880866 -6.218179,-3.545869 -10.565554,-8.870169a10.330471,42.402732 0 0 1 -5.781735,-7.905049a24.066008,98.781993 0 0 1 -25.165917,-44.394423a24.812278,101.845154 0 0 1 -5.397039,-11.655346c-6.627838,-14.921539 -9.995526,-24.905144 -9.995526,-24.905144s-0.078506,-0.196732 -0.22438,-0.564541l0.001457,-0.001255c0.471204,-0.036091 0.867635,-0.553645 0.93775,-2.102846c0.184928,-4.177863 -3.439445,-13.19948 -5.46418,-17.915604a1.77955,7.304391 0 0 0 -2.162367,-3.980426l-0.003036,-0.005982a10.105176,41.477981 0 0 1 -0.525749,-6.173982a10.903325,44.754086 0 0 1 0.879989,-5.921317a14.540681,59.684078 0 0 1 1.303471,-2.426766c3.775104,-4.93356 6.978613,-4.810051 11.3712,-0.961072l0.004494,0.004727c-2.08107,-6.544127 -4.371776,-14.943287 -1.739143,-13.068494c3.563299,2.536507 8.429587,15.362312 10.047914,22.233956l0.000152,0.000299l-0.000003,0zm10.206011,22.600267c-2.241704,-6.881606 -7.221407,-13.168337 -9.630626,-15.799824c-2.405879,-2.624907 -6.715653,-4.492032 -3.429462,6.77722c1.969199,6.746611 4.909268,12.022463 7.034304,15.303512a2.736251,11.23129 0 0 0 5.143717,5.282041a8.055447,33.064608 0 0 0 1.782211,0.148569c2.494007,-0.305708 1.34156,-4.829912 -0.900144,-11.711518z" fill="#ffff00" id="svg_51" transform="rotate(110.687 307.982 127.992) matrix(-0.823101 0.567896 -0.567896 -0.823101 707.425 398.356)"/>
  <path class="cls-5" d="m58.921,279.932s-40.328,-9.288 -48.53,6.089s11.421,35.879 42.626,31.779m337.407,20.4a20.328,20.328 0 0 0 -24.131,10.435c-5.413,10.764 -8.283,25.382 9.041,33.747a79.473,79.473 0 0 0 15.193,5.638c20.932,5.27 33.644,-2.563 31.963,-11.789c-1.763,-9.656 -5.782,-29.872 -32.066,-38.032l0,0.001zm-226.961,-222.862a4.802,4.802 0 0 1 -1.272,0.185c-2.788,0.041 -9.082,-1.948 -8.283,-21.2c1.026,-24.602 12.302,-44.08 22.553,-44.08c10.23,0 28.908,23.722 22.84,53.266c0,0.04 -0.02,0.102 -0.02,0.143m125.822,38.852a238.206,238.206 0 0 1 11.687,-21.466c11.85,-19.395 30.692,-43.526 46.745,-33.89c21.733,13.04 6.028,52.63 -11.83,71.86a44.513,44.513 0 0 1 -9.574,8.099m-266.121,334.148s-0.02,0.102 -0.041,0.287c-0.37,2.727 -2.809,24.5 8.693,44.367c6.602,11.44 20.072,17.55 32.701,13.716c6.52,-1.989 12.835,-6.622 16.505,-16.279c0.102,-0.225 0.184,-0.45 0.266,-0.676m185.526,-13.962c-4.88,-4.326 -13.04,-7.853 -26.181,-9.637c-1.784,-0.246 -37.581,-3.731 -30.487,24.234a59.195,59.195 0 0 0 5.884,14.024c23.926,43.055 48.2,14.536 52.63,3.444c2.747,-6.93 9.758,-21.753 -1.825,-32.065c0,0 0,0.02 -0.02,0l-0.001,0zm19.21,-9.903s29.114,12.199 42.092,-3.157c0,0 6.828,-10.006 -16.668,-27.76m-244.389,-278.403s-0.471,0.103 -1.27,0.308c-5.577,1.476 -27.7,8.59 -24.706,27.699c1.804,11.522 7.77,18.862 16.32,22.737a40.938,40.938 0 0 0 14.782,3.321a67.985,67.985 0 0 0 13.327,-0.758a129.23,129.23 0 0 0 5.023,-0.861c18.964,-3.65 27.186,-10.293 28.457,-21.015c1.25,-10.518 0.225,-23.291 -12.137,-27.125a22.984,22.984 0 0 0 -4.265,-0.902c-0.84,-0.103 -1.702,-0.205 -2.542,-0.308m-34.239,-3.198l0.02,0m0,0s0.062,0 0.287,0.02c0.205,0.02 0.513,0.041 0.943,0.082" id="svg_13"/>
  <ellipse cx="270.822359" cy="268.289104" fill="#d4ffaa" id="svg_37" opacity="0.5" rx="56.563072" ry="23.696102" transform="matrix(0.939793 0.341743 -0.341743 0.939793 95.8089 -73.548)"/>
  <ellipse cx="88.140015" cy="242.140013" fill="#d4ffaa" id="svg_38" opacity="0.5" rx="27.85653" ry="19.102397" transform="rotate(-27.1213 88.14 242.14)"/>
  <ellipse cx="134.248886" cy="318.17998" fill="#ffaaaa" id="svg_39" opacity="0.8" rx="56.563072" ry="23.696102" transform="rotate(-34.5589 139.432 293.153) matrix(-0.384101 0.376099 -0.918306 -0.25039 483.184 322.331)"/>
  <path class="cls-3" d="m129.243,260.234s-4.354,28.568 14.781,27.201s18.347,-25.513 18.347,-25.513" id="svg_22"/>
  <path class="cls-4" d="m130.342,260.25c-0.014,5.907 0.226,11.789 1.78,17.289a18.402,18.402 0 0 0 1.52,3.985a10.535,10.535 0 0 0 2.665,3.326a9.615,9.615 0 0 0 3.85,1.851a13.07,13.07 0 0 0 4.285,0.21a19.951,19.951 0 0 0 8.012,-2.61a14.888,14.888 0 0 0 3.222,-2.623a19.699,19.699 0 0 0 2.55,-3.311a31.064,31.064 0 0 0 3.385,-7.834a49.407,49.407 0 0 0 1.66,-8.608l0.2,-0.006a31.442,31.442 0 0 1 -0.328,8.972a26.084,26.084 0 0 1 -3.099,8.589a17.227,17.227 0 0 1 -15.557,8.533a14.598,14.598 0 0 1 -8.574,-2.65a14.88,14.88 0 0 1 -3.21,-3.25a18.386,18.386 0 0 1 -2.161,-4.056a26.591,26.591 0 0 1 -1.447,-8.94a34.226,34.226 0 0 1 1.05,-8.898l0.197,0.031z" id="svg_23"/>
  <path class="cls-5" d="m145.024,287.435s-1.367,-17.175 0,-23.817" id="svg_31"/>
 </g>
</svg>